<svg xmlns="http://www.w3.org/2000/svg" width="1921" height="11" viewBox="0 0 1921 11"><g><g><path fill="#fff" d="M10.5 11.106L-.107.5h1921.213L1910.5 11.106l-10-10-10 10-10-10-10 10-10-10-10 10-10-10-10 10-10-10-10 10-10-10-10 10-10-10-10 10-10-10-10 10-10-10-10 10-10-10-10 10-10-10-10 10-10-10-10 10-10-10-10 10-10-10-10 10-10-10-10 10-10-10-10 10-10-10-10 10-10-10-10 10-10-10-10 10-10-10-10 10-10-10-10 10-10-10-10 10-10-10-10 10-10-10-10 10-10-10-10 10-10-10-10 10-10-10-10 10-10-10-10 10-10-10-10 10-10-10-10 10-10-10-10 10-10-10-10 10-10-10-10 10-10-10-10 10-10-10-10 10-10-10-10 10-10-10-10 10-10-10-10 10-10-10-10 10-10-10-10 10-10-10-10 10-10-10-10 10-10-10-10 10-10-10-10 10-10-10-10 10-10-10-10 10-10-10-10 10-10-10-10 10-10-10-10 10-10-10-10 10-10-10-10 10-10-10-10 10-10-10-10 10-10-10-10 10-10-10-10 10-10-10-10 10-10-10-10 10-10-10-10 10-10-10-10 10-10-10-10 10-10-10-10 10-10-10-10 10-10-10-10 10-10-10-10 10-10-10-10 10-10-10-10 10-10-10-10 10-10-10-10 10-10-10-10 10-10-10-10 10-10-10-10 10-10-10-10 10-10-10-10 10-10-10-10 10-10-10-10 10-10-10-10 10-10-10-10 10-10-10-10 10-10-10-10 10-10-10-10 10-10-10-10 10-10-10-10 10-10-10-10 10-10-10-10 10-10-10-10 10-10-10-10 10-10-10-10 10-10-10-10 10-10-10-10 10-10-10-10 10-10-10-10 10-10-10-10 10-10-10-10 10-10-10-10 10-10-10z"/></g></g></svg>